<?xml version="1.0" standalone="no"?>
<!DOCTYPE svg PUBLIC "-//W3C//DTD SVG 20010904//EN" "http://www.w3.org/TR/2001/REC-SVG-20010904/DTD/svg10.dtd">
<svg version="1.0" xmlns="http://www.w3.org/2000/svg"
    width="200.000000pt" height="200.000000pt" viewBox="0 0 200.000000 200.000000"
    preserveAspectRatio="xMidYMid meet">

    <g transform="translate(0.000000,200.000000) scale(0.100000,-0.100000)"
        fill="#000000" stroke="none">
        <path
            d="M342 1518 c-17 -17 -17 -1019 0 -1036 17 -17 1299 -17 1316 0 17 17
17 1019 0 1036 -17 17 -1299 17 -1316 0z m1248 -158 l0 -90 -590 0 -590 0 0
90 0 90 590 0 590 0 0 -90z m0 -490 l0 -320 -590 0 -590 0 0 320 0 320 590 0
590 0 0 -320z"
            fill="#EB5E28" />
        <path
            d="M471 1381 c-25 -46 8 -64 103 -59 66 3 90 23 70 56 -9 13 -28 18 -87
20 -67 2 -77 0 -86 -17z"
            fill="#EB5E28" />
        <path
            d="M1056 1043 c-64 -101 -196 -366 -191 -383 7 -23 32 -33 53 -21 15 8
212 364 220 399 5 18 -17 42 -39 42 -11 0 -29 -16 -43 -37z"
            fill="#EB5E28" />
        <path
            d="M674 958 c-48 -46 -84 -90 -84 -101 0 -24 136 -166 167 -173 26 -7
53 10 53 33 0 8 -28 44 -62 79 l-62 65 62 62 c34 34 62 68 62 74 0 14 -28 43
-42 43 -6 0 -48 -37 -94 -82z"
            fill="#EB5E28" />
        <path
            d="M1206 1024 c-9 -8 -16 -21 -16 -27 0 -6 28 -40 62 -74 l62 -62 -62
-65 c-34 -35 -62 -71 -62 -78 0 -20 21 -38 45 -38 27 0 175 148 175 176 0 21
-158 184 -178 184 -6 0 -18 -7 -26 -16z"
            fill="#EB5E28" />
    </g>
</svg>