<?xml version="1.0" standalone="no"?>
<!DOCTYPE svg PUBLIC "-//W3C//DTD SVG 20010904//EN"
 "http://www.w3.org/TR/2001/REC-SVG-20010904/DTD/svg10.dtd">
<svg version="1.0" xmlns="http://www.w3.org/2000/svg"
 width="280.000000pt" height="280.000000pt" viewBox="0 0 280.000000 280.000000"
 preserveAspectRatio="xMidYMid meet">
<metadata>
Created by potrace 1.16, written by Peter Selinger 2001-2019
</metadata>
<g transform="translate(0.000000,280.000000) scale(0.100000,-0.100000)"
fill="#000000" stroke="none">
<path d="M448 2766 c-200 -88 -339 -239 -414 -451 l-29 -80 0 -825 0 -825 29
-80 c44 -122 96 -205 181 -290 85 -85 168 -137 290 -181 l80 -29 825 0 825 0
80 29 c199 71 348 202 438 386 l42 85 0 905 0 905 -42 85 c-78 160 -219 296
-379 365 l-82 35 -884 0 -883 -1 -77 -33z m414 -1198 l3 -443 29 -58 c66 -132
209 -196 378 -168 129 21 206 82 255 200 22 55 23 61 23 484 l0 427 55 0 55 0
0 -428 c0 -455 -2 -478 -51 -574 -48 -95 -176 -187 -288 -208 -235 -44 -437
43 -533 230 l-33 65 -3 458 -3 457 55 0 55 0 3 -442z m1228 -158 l0 -600 -55
0 -55 0 0 600 0 600 55 0 55 0 0 -600z"/>
</g>
</svg>
